<svg width="50" height="51" viewBox="0 0 50 51" fill="none" xmlns="http://www.w3.org/2000/svg">
<g clip-path="url(#clip0_417_172)">
<path d="M25 50.8182C38.8071 50.8182 50 39.6253 50 25.8182C50 12.0111 38.8071 0.818176 25 0.818176C11.1929 0.818176 0 12.0111 0 25.8182C0 39.6253 11.1929 50.8182 25 50.8182Z" fill="#F0F0F0"/>
<path d="M50 25.8182C50 15.0691 43.2156 5.90549 33.6956 2.37317V49.2633C43.2156 45.7309 50 36.5673 50 25.8182V25.8182Z" fill="#D80027"/>
<path d="M0 25.8182C0 36.5673 6.78447 45.7309 16.3044 49.2632V2.37317C6.78447 5.90549 0 15.0691 0 25.8182Z" fill="#0052B4"/>
</g>
<defs>
<clipPath id="clip0_417_172">
<rect width="50" height="50" fill="white" transform="translate(0 0.818176)"/>
</clipPath>
</defs>
</svg>
