<svg width="50" height="51" viewBox="0 0 50 51" fill="none" xmlns="http://www.w3.org/2000/svg">
<g clip-path="url(#clip0_417_172)">
<path d="M25 50.8182C38.8071 50.8182 50 39.6253 50 25.8182C50 12.0111 38.8071 0.818176 25 0.818176C11.1929 0.818176 0 12.0111 0 25.8182C0 39.6253 11.1929 50.8182 25 50.8182Z" fill="#F0F0F0"/>
<path d="M25 0.818176C15.0885 0.818176 6.5244 6.58624 2.48065 14.9486H47.5192C43.4756 6.58624 34.9114 0.818176 25 0.818176V0.818176Z" fill="#338AF3"/>
<path d="M25 50.8182C34.9114 50.8182 43.4756 45.0501 47.5193 36.6877H2.48065C6.5244 45.0501 15.0885 50.8182 25 50.8182Z" fill="#338AF3"/>
<path d="M32.4722 25.8182L29.4189 27.2544L31.0448 30.2114L27.7294 29.5771L27.3093 32.9263L25 30.463L22.6906 32.9263L22.2706 29.5771L18.9552 30.2113L20.581 27.2543L17.5278 25.8182L20.5811 24.382L18.9552 21.4251L22.2705 22.0593L22.6907 18.7101L25 21.1734L27.3094 18.7101L27.7294 22.0593L31.0449 21.4251L29.419 24.3821L32.4722 25.8182Z" fill="#FFDA44"/>
</g>
<defs>
<clipPath id="clip0_417_172">
<rect width="50" height="50" fill="white" transform="translate(0 0.818176)"/>
</clipPath>
</defs>
</svg>

